<?xml version="1.0" encoding="utf-8" standalone="no"?>
<!DOCTYPE svg PUBLIC "-//W3C//DTD SVG 1.1//EN"
  "http://www.w3.org/Graphics/SVG/1.1/DTD/svg11.dtd">
<svg xmlns:xlink="http://www.w3.org/1999/xlink" width="720pt" height="432pt" viewBox="0 0 720 432" xmlns="http://www.w3.org/2000/svg" version="1.1">
 <metadata>
  <rdf:RDF xmlns:dc="http://purl.org/dc/elements/1.1/" xmlns:cc="http://creativecommons.org/ns#" xmlns:rdf="http://www.w3.org/1999/02/22-rdf-syntax-ns#">
   <cc:Work>
    <dc:type rdf:resource="http://purl.org/dc/dcmitype/StillImage"/>
    <dc:date>2025-09-13T13:35:10.330158</dc:date>
    <dc:format>image/svg+xml</dc:format>
    <dc:creator>
     <cc:Agent>
      <dc:title>Matplotlib v3.8.4, https://matplotlib.org/</dc:title>
     </cc:Agent>
    </dc:creator>
   </cc:Work>
  </rdf:RDF>
 </metadata>
 <defs>
  <style type="text/css">*{stroke-linejoin: round; stroke-linecap: butt}</style>
 </defs>
 <g id="figure_1">
  <g id="patch_1">
   <path d="M 0 432 
L 720 432 
L 720 0 
L 0 0 
z
" style="fill: #ffffff"/>
  </g>
  <g id="axes_1">
   <g id="patch_2">
    <path d="M 90 384.48 
L 648 384.48 
L 648 51.84 
L 90 51.84 
z
" style="fill: #ffffff"/>
   </g>
   <g id="PolyCollection_1">
    <defs>
     <path id="m98cff45afa" d="M 159.759499 -68.138999 
L 159.740501 -68.138999 
L 159.730348 -70.291041 
L 159.715393 -72.443084 
L 159.697945 -74.595126 
L 159.68248 -76.747168 
L 159.672505 -78.89921 
L 159.666313 -81.051252 
L 159.655375 -83.203295 
L 159.627906 -85.355337 
L 159.57566 -87.507379 
L 159.4984 -89.659421 
L 159.401228 -91.811463 
L 159.285708 -93.963506 
L 159.142041 -96.115548 
L 158.950006 -98.26759 
L 158.689311 -100.419632 
L 158.351652 -102.571675 
L 157.944818 -104.723717 
L 157.484993 -106.875759 
L 156.983157 -109.027801 
L 156.43792 -111.179843 
L 155.841653 -113.331886 
L 155.190255 -115.483928 
L 154.477945 -117.63597 
L 153.675635 -119.788012 
L 152.72002 -121.940054 
L 151.539035 -124.092097 
L 150.097867 -126.244139 
L 148.418156 -128.396181 
L 146.54858 -130.548223 
L 144.51936 -132.700265 
L 142.327075 -134.852308 
L 139.955818 -137.00435 
L 137.403189 -139.156392 
L 134.688519 -141.308434 
L 131.850843 -143.460477 
L 128.947518 -145.612519 
L 126.045981 -147.764561 
L 123.203968 -149.916603 
L 120.456557 -152.068645 
L 117.823776 -154.220688 
L 115.31975 -156.37273 
L 112.945753 -158.524772 
L 110.693774 -160.676814 
L 108.591402 -162.828856 
L 106.749398 -164.980899 
L 105.33171 -167.132941 
L 104.442852 -169.284983 
L 104.037411 -171.437025 
L 103.95 -173.589067 
L 104.016778 -175.74111 
L 104.163978 -177.893152 
L 104.388054 -180.045194 
L 104.684079 -182.197236 
L 105.034517 -184.349279 
L 105.482592 -186.501321 
L 106.190449 -188.653363 
L 107.377054 -190.805405 
L 109.16001 -192.957447 
L 111.442122 -195.10949 
L 113.95125 -197.261532 
L 116.395328 -199.413574 
L 118.596614 -201.565616 
L 120.517311 -203.717658 
L 122.208217 -205.869701 
L 123.762405 -208.021743 
L 125.301465 -210.173785 
L 126.956187 -212.325827 
L 128.816004 -214.477869 
L 130.883264 -216.629912 
L 133.082357 -218.781954 
L 135.315944 -220.933996 
L 137.51164 -223.086038 
L 139.626112 -225.238081 
L 141.628471 -227.390123 
L 143.49647 -229.542165 
L 145.226362 -231.694207 
L 146.836414 -233.846249 
L 148.357424 -235.998292 
L 149.819159 -238.150334 
L 151.238043 -240.302376 
L 152.606625 -242.454418 
L 153.891651 -244.60646 
L 155.047602 -246.758503 
L 156.03843 -248.910545 
L 156.851546 -251.062587 
L 157.497155 -253.214629 
L 157.998417 -255.366671 
L 158.380602 -257.518714 
L 158.664826 -259.670756 
L 158.869256 -261.822798 
L 159.015063 -263.97484 
L 159.128708 -266.126883 
L 159.235205 -268.278925 
L 159.347464 -270.430967 
L 159.462059 -272.583009 
L 159.565568 -274.735051 
L 159.645668 -276.887094 
L 159.698341 -279.039136 
L 159.727751 -281.191178 
L 159.772249 -281.191178 
L 159.772249 -281.191178 
L 159.801659 -279.039136 
L 159.854332 -276.887094 
L 159.934432 -274.735051 
L 160.037941 -272.583009 
L 160.152536 -270.430967 
L 160.264795 -268.278925 
L 160.371292 -266.126883 
L 160.484937 -263.97484 
L 160.630744 -261.822798 
L 160.835174 -259.670756 
L 161.119398 -257.518714 
L 161.501583 -255.366671 
L 162.002845 -253.214629 
L 162.648454 -251.062587 
L 163.46157 -248.910545 
L 164.452398 -246.758503 
L 165.608349 -244.60646 
L 166.893375 -242.454418 
L 168.261957 -240.302376 
L 169.680841 -238.150334 
L 171.142576 -235.998292 
L 172.663586 -233.846249 
L 174.273638 -231.694207 
L 176.00353 -229.542165 
L 177.871529 -227.390123 
L 179.873888 -225.238081 
L 181.98836 -223.086038 
L 184.184056 -220.933996 
L 186.417643 -218.781954 
L 188.616736 -216.629912 
L 190.683996 -214.477869 
L 192.543813 -212.325827 
L 194.198535 -210.173785 
L 195.737595 -208.021743 
L 197.291783 -205.869701 
L 198.982689 -203.717658 
L 200.903386 -201.565616 
L 203.104672 -199.413574 
L 205.54875 -197.261532 
L 208.057878 -195.10949 
L 210.33999 -192.957447 
L 212.122946 -190.805405 
L 213.309551 -188.653363 
L 214.017408 -186.501321 
L 214.465483 -184.349279 
L 214.815921 -182.197236 
L 215.111946 -180.045194 
L 215.336022 -177.893152 
L 215.483222 -175.74111 
L 215.55 -173.589067 
L 215.462589 -171.437025 
L 215.057148 -169.284983 
L 214.16829 -167.132941 
L 212.750602 -164.980899 
L 210.908598 -162.828856 
L 208.806226 -160.676814 
L 206.554247 -158.524772 
L 204.18025 -156.37273 
L 201.676224 -154.220688 
L 199.043443 -152.068645 
L 196.296032 -149.916603 
L 193.454019 -147.764561 
L 190.552482 -145.612519 
L 187.649157 -143.460477 
L 184.811481 -141.308434 
L 182.096811 -139.156392 
L 179.544182 -137.00435 
L 177.172925 -134.852308 
L 174.98064 -132.700265 
L 172.95142 -130.548223 
L 171.081844 -128.396181 
L 169.402133 -126.244139 
L 167.960965 -124.092097 
L 166.77998 -121.940054 
L 165.824365 -119.788012 
L 165.022055 -117.63597 
L 164.309745 -115.483928 
L 163.658347 -113.331886 
L 163.06208 -111.179843 
L 162.516843 -109.027801 
L 162.015007 -106.875759 
L 161.555182 -104.723717 
L 161.148348 -102.571675 
L 160.810689 -100.419632 
L 160.549994 -98.26759 
L 160.357959 -96.115548 
L 160.214292 -93.963506 
L 160.098772 -91.811463 
L 160.0016 -89.659421 
L 159.92434 -87.507379 
L 159.872094 -85.355337 
L 159.844625 -83.203295 
L 159.833687 -81.051252 
L 159.827495 -78.89921 
L 159.81752 -76.747168 
L 159.802055 -74.595126 
L 159.784607 -72.443084 
L 159.769652 -70.291041 
L 159.759499 -68.138999 
z
" style="stroke: #1f1f1f"/>
    </defs>
    <g clip-path="url(#p08ed511f95)">
     <use xlink:href="#m98cff45afa" x="0" y="432" style="fill: #afafaf; stroke: #1f1f1f"/>
    </g>
   </g>
   <g id="PolyCollection_2">
    <defs>
     <path id="me788e3c32c" d="M 299.259778 -102.06447 
L 299.240222 -102.06447 
L 299.230659 -104.601989 
L 299.216653 -107.139507 
L 299.199629 -109.677026 
L 299.182494 -112.214545 
L 299.167283 -114.752063 
L 299.151448 -117.289582 
L 299.125215 -119.8271 
L 299.072521 -122.364619 
L 298.97588 -124.902137 
L 298.822721 -127.439656 
L 298.609454 -129.977174 
L 298.340765 -132.514693 
L 298.024229 -135.052212 
L 297.662494 -137.58973 
L 297.246144 -140.127249 
L 296.750261 -142.664767 
L 296.136844 -145.202286 
L 295.363001 -147.739804 
L 294.391167 -150.277323 
L 293.194957 -152.814841 
L 291.75588 -155.35236 
L 290.052214 -157.889878 
L 288.047611 -160.427397 
L 285.689315 -162.964916 
L 282.92329 -165.502434 
L 279.726495 -168.039953 
L 276.144442 -170.577471 
L 272.310874 -173.11499 
L 268.430632 -175.652508 
L 264.729873 -178.190027 
L 261.397809 -180.727545 
L 258.540285 -183.265064 
L 256.152362 -185.802583 
L 254.120127 -188.340101 
L 252.269132 -190.87762 
L 250.454127 -193.415138 
L 248.640938 -195.952657 
L 246.921356 -198.490175 
L 245.451269 -201.027694 
L 244.362726 -203.565212 
L 243.707949 -206.102731 
L 243.45 -208.64025 
L 243.480906 -211.177768 
L 243.655559 -213.715287 
L 243.845401 -216.252805 
L 244.000877 -218.790324 
L 244.182181 -221.327842 
L 244.521263 -223.865361 
L 245.128193 -226.402879 
L 246.010909 -228.940398 
L 247.078608 -231.477916 
L 248.226866 -234.015435 
L 249.418808 -236.552954 
L 250.678879 -239.090472 
L 252.016667 -241.627991 
L 253.38238 -244.165509 
L 254.713883 -246.703028 
L 256.018669 -249.240546 
L 257.392405 -251.778065 
L 258.953847 -254.315583 
L 260.7627 -256.853102 
L 262.781989 -259.390621 
L 264.887376 -261.928139 
L 266.903885 -264.465658 
L 268.669322 -267.003176 
L 270.117819 -269.540695 
L 271.335198 -272.078213 
L 272.527763 -274.615732 
L 273.906453 -277.15325 
L 275.5634 -279.690769 
L 277.427629 -282.228287 
L 279.323355 -284.765806 
L 281.081551 -287.303325 
L 282.630577 -289.840843 
L 284.017961 -292.378362 
L 285.361665 -294.91588 
L 286.766875 -297.453399 
L 288.259622 -299.990917 
L 289.775128 -302.528436 
L 291.201808 -305.065954 
L 292.445763 -307.603473 
L 293.47332 -310.140992 
L 294.313337 -312.67851 
L 295.030117 -315.216029 
L 295.68841 -317.753547 
L 296.326306 -320.291066 
L 296.944384 -322.828584 
L 297.513887 -325.366103 
L 297.998438 -327.903621 
L 298.375876 -330.44114 
L 298.647727 -332.978659 
L 298.834046 -335.516177 
L 298.961098 -338.053696 
L 299.050947 -340.591214 
L 299.117281 -343.128733 
L 299.166607 -345.666251 
L 299.201712 -348.20377 
L 299.224665 -350.741288 
L 299.238101 -353.278807 
L 299.261899 -353.278807 
L 299.261899 -353.278807 
L 299.275335 -350.741288 
L 299.298288 -348.20377 
L 299.333393 -345.666251 
L 299.382719 -343.128733 
L 299.449053 -340.591214 
L 299.538902 -338.053696 
L 299.665954 -335.516177 
L 299.852273 -332.978659 
L 300.124124 -330.44114 
L 300.501562 -327.903621 
L 300.986113 -325.366103 
L 301.555616 -322.828584 
L 302.173694 -320.291066 
L 302.81159 -317.753547 
L 303.469883 -315.216029 
L 304.186663 -312.67851 
L 305.02668 -310.140992 
L 306.054237 -307.603473 
L 307.298192 -305.065954 
L 308.724872 -302.528436 
L 310.240378 -299.990917 
L 311.733125 -297.453399 
L 313.138335 -294.91588 
L 314.482039 -292.378362 
L 315.869423 -289.840843 
L 317.418449 -287.303325 
L 319.176645 -284.765806 
L 321.072371 -282.228287 
L 322.9366 -279.690769 
L 324.593547 -277.15325 
L 325.972237 -274.615732 
L 327.164802 -272.078213 
L 328.382181 -269.540695 
L 329.830678 -267.003176 
L 331.596115 -264.465658 
L 333.612624 -261.928139 
L 335.718011 -259.390621 
L 337.7373 -256.853102 
L 339.546153 -254.315583 
L 341.107595 -251.778065 
L 342.481331 -249.240546 
L 343.786117 -246.703028 
L 345.11762 -244.165509 
L 346.483333 -241.627991 
L 347.821121 -239.090472 
L 349.081192 -236.552954 
L 350.273134 -234.015435 
L 351.421392 -231.477916 
L 352.489091 -228.940398 
L 353.371807 -226.402879 
L 353.978737 -223.865361 
L 354.317819 -221.327842 
L 354.499123 -218.790324 
L 354.654599 -216.252805 
L 354.844441 -213.715287 
L 355.019094 -211.177768 
L 355.05 -208.64025 
L 354.792051 -206.102731 
L 354.137274 -203.565212 
L 353.048731 -201.027694 
L 351.578644 -198.490175 
L 349.859062 -195.952657 
L 348.045873 -193.415138 
L 346.230868 -190.87762 
L 344.379873 -188.340101 
L 342.347638 -185.802583 
L 339.959715 -183.265064 
L 337.102191 -180.727545 
L 333.770127 -178.190027 
L 330.069368 -175.652508 
L 326.189126 -173.11499 
L 322.355558 -170.577471 
L 318.773505 -168.039953 
L 315.57671 -165.502434 
L 312.810685 -162.964916 
L 310.452389 -160.427397 
L 308.447786 -157.889878 
L 306.74412 -155.35236 
L 305.305043 -152.814841 
L 304.108833 -150.277323 
L 303.136999 -147.739804 
L 302.363156 -145.202286 
L 301.749739 -142.664767 
L 301.253856 -140.127249 
L 300.837506 -137.58973 
L 300.475771 -135.052212 
L 300.159235 -132.514693 
L 299.890546 -129.977174 
L 299.677279 -127.439656 
L 299.52412 -124.902137 
L 299.427479 -122.364619 
L 299.374785 -119.8271 
L 299.348552 -117.289582 
L 299.332717 -114.752063 
L 299.317506 -112.214545 
L 299.300371 -109.677026 
L 299.283347 -107.139507 
L 299.269341 -104.601989 
L 299.259778 -102.06447 
z
" style="stroke: #1f1f1f"/>
    </defs>
    <g clip-path="url(#p08ed511f95)">
     <use xlink:href="#me788e3c32c" x="0" y="432" style="fill: #afafaf; stroke: #1f1f1f"/>
    </g>
   </g>
   <g id="PolyCollection_3">
    <defs>
     <path id="m748237befd" d="M 438.759706 -127.919339 
L 438.740294 -127.919339 
L 438.731255 -129.813688 
L 438.718049 -131.708037 
L 438.701657 -133.602386 
L 438.684249 -135.496735 
L 438.667417 -137.391084 
L 438.64926 -139.285433 
L 438.621933 -141.179783 
L 438.571318 -143.074132 
L 438.478879 -144.968481 
L 438.323904 -146.86283 
L 438.084298 -148.757179 
L 437.736308 -150.651528 
L 437.25571 -152.545877 
L 436.621709 -154.440227 
L 435.820339 -156.334576 
L 434.841431 -158.228925 
L 433.667924 -160.123274 
L 432.266358 -162.017623 
L 430.592251 -163.911972 
L 428.615006 -165.806321 
L 426.348603 -167.700671 
L 423.863833 -169.59502 
L 421.267968 -171.489369 
L 418.662487 -173.383718 
L 416.106836 -175.278067 
L 413.610154 -177.172416 
L 411.15046 -179.066765 
L 408.703558 -180.961115 
L 406.264033 -182.855464 
L 403.850972 -184.749813 
L 401.500256 -186.644162 
L 399.251372 -188.538511 
L 397.138531 -190.43286 
L 395.188771 -192.327209 
L 393.418319 -194.221558 
L 391.820606 -196.115908 
L 390.357764 -198.010257 
L 388.976183 -199.904606 
L 387.645688 -201.798955 
L 386.391998 -203.693304 
L 385.291824 -205.587653 
L 384.431955 -207.482002 
L 383.862357 -209.376352 
L 383.571673 -211.270701 
L 383.492413 -213.16505 
L 383.527001 -215.059399 
L 383.580936 -216.953748 
L 383.588762 -218.848097 
L 383.522633 -220.742446 
L 383.385899 -222.636796 
L 383.205729 -224.531145 
L 383.034156 -226.425494 
L 382.95 -228.319843 
L 383.047178 -230.214192 
L 383.408423 -232.108541 
L 384.080795 -234.00289 
L 385.06918 -235.89724 
L 386.347127 -237.791589 
L 387.870786 -239.685938 
L 389.585088 -241.580287 
L 391.425487 -243.474636 
L 393.325846 -245.368985 
L 395.234206 -247.263334 
L 397.124152 -249.157684 
L 398.989281 -251.052033 
L 400.825217 -252.946382 
L 402.618573 -254.840731 
L 404.356456 -256.73508 
L 406.04849 -258.629429 
L 407.739117 -260.523778 
L 409.495585 -262.418128 
L 411.377509 -264.312477 
L 413.407363 -266.206826 
L 415.558624 -268.101175 
L 417.766166 -269.995524 
L 419.95247 -271.889873 
L 422.056737 -273.784222 
L 424.051958 -275.678571 
L 425.940168 -277.572921 
L 427.729547 -279.46727 
L 429.410043 -281.361619 
L 430.945006 -283.255968 
L 432.284023 -285.150317 
L 433.38819 -287.044666 
L 434.253023 -288.939015 
L 434.916647 -290.833365 
L 435.447941 -292.727714 
L 435.919321 -294.622063 
L 436.378438 -296.516412 
L 436.835144 -298.410761 
L 437.270051 -300.30511 
L 437.655747 -302.199459 
L 437.974617 -304.093809 
L 438.22385 -305.988158 
L 438.410318 -307.882507 
L 438.543831 -309.776856 
L 438.634037 -311.671205 
L 438.690372 -313.565554 
L 438.72228 -315.459903 
L 438.77772 -315.459903 
L 438.77772 -315.459903 
L 438.809628 -313.565554 
L 438.865963 -311.671205 
L 438.956169 -309.776856 
L 439.089682 -307.882507 
L 439.27615 -305.988158 
L 439.525383 -304.093809 
L 439.844253 -302.199459 
L 440.229949 -300.30511 
L 440.664856 -298.410761 
L 441.121562 -296.516412 
L 441.580679 -294.622063 
L 442.052059 -292.727714 
L 442.583353 -290.833365 
L 443.246977 -288.939015 
L 444.11181 -287.044666 
L 445.215977 -285.150317 
L 446.554994 -283.255968 
L 448.089957 -281.361619 
L 449.770453 -279.46727 
L 451.559832 -277.572921 
L 453.448042 -275.678571 
L 455.443263 -273.784222 
L 457.54753 -271.889873 
L 459.733834 -269.995524 
L 461.941376 -268.101175 
L 464.092637 -266.206826 
L 466.122491 -264.312477 
L 468.004415 -262.418128 
L 469.760883 -260.523778 
L 471.45151 -258.629429 
L 473.143544 -256.73508 
L 474.881427 -254.840731 
L 476.674783 -252.946382 
L 478.510719 -251.052033 
L 480.375848 -249.157684 
L 482.265794 -247.263334 
L 484.174154 -245.368985 
L 486.074513 -243.474636 
L 487.914912 -241.580287 
L 489.629214 -239.685938 
L 491.152873 -237.791589 
L 492.43082 -235.89724 
L 493.419205 -234.00289 
L 494.091577 -232.108541 
L 494.452822 -230.214192 
L 494.55 -228.319843 
L 494.465844 -226.425494 
L 494.294271 -224.531145 
L 494.114101 -222.636796 
L 493.977367 -220.742446 
L 493.911238 -218.848097 
L 493.919064 -216.953748 
L 493.972999 -215.059399 
L 494.007587 -213.16505 
L 493.928327 -211.270701 
L 493.637643 -209.376352 
L 493.068045 -207.482002 
L 492.208176 -205.587653 
L 491.108002 -203.693304 
L 489.854312 -201.798955 
L 488.523817 -199.904606 
L 487.142236 -198.010257 
L 485.679394 -196.115908 
L 484.081681 -194.221558 
L 482.311229 -192.327209 
L 480.361469 -190.43286 
L 478.248628 -188.538511 
L 475.999744 -186.644162 
L 473.649028 -184.749813 
L 471.235967 -182.855464 
L 468.796442 -180.961115 
L 466.34954 -179.066765 
L 463.889846 -177.172416 
L 461.393164 -175.278067 
L 458.837513 -173.383718 
L 456.232032 -171.489369 
L 453.636167 -169.59502 
L 451.151397 -167.700671 
L 448.884994 -165.806321 
L 446.907749 -163.911972 
L 445.233642 -162.017623 
L 443.832076 -160.123274 
L 442.658569 -158.228925 
L 441.679661 -156.334576 
L 440.878291 -154.440227 
L 440.24429 -152.545877 
L 439.763692 -150.651528 
L 439.415702 -148.757179 
L 439.176096 -146.86283 
L 439.021121 -144.968481 
L 438.928682 -143.074132 
L 438.878067 -141.179783 
L 438.85074 -139.285433 
L 438.832583 -137.391084 
L 438.815751 -135.496735 
L 438.798343 -133.602386 
L 438.781951 -131.708037 
L 438.768745 -129.813688 
L 438.759706 -127.919339 
z
" style="stroke: #1f1f1f"/>
    </defs>
    <g clip-path="url(#p08ed511f95)">
     <use xlink:href="#m748237befd" x="0" y="432" style="fill: #cf6f1e; stroke: #1f1f1f"/>
    </g>
   </g>
   <g id="PolyCollection_4">
    <defs>
     <path id="mf4211a9ba3" d="M 578.279265 -142.064978 
L 578.220735 -142.064978 
L 578.134215 -143.851786 
L 577.919221 -145.638593 
L 577.543193 -147.425401 
L 577.05681 -149.212208 
L 576.532101 -150.999015 
L 575.968676 -152.785823 
L 575.331004 -154.57263 
L 574.621412 -156.359438 
L 573.837843 -158.146245 
L 572.924357 -159.933052 
L 571.808202 -161.71986 
L 570.446761 -163.506667 
L 568.832413 -165.293474 
L 566.966421 -167.080282 
L 564.853379 -168.867089 
L 562.528582 -170.653897 
L 560.050374 -172.440704 
L 557.48697 -174.227511 
L 554.927344 -176.014319 
L 552.425544 -177.801126 
L 549.92111 -179.587934 
L 547.262804 -181.374741 
L 544.359022 -183.161548 
L 541.339015 -184.948356 
L 538.497313 -186.735163 
L 536.043965 -188.521971 
L 533.950604 -190.308778 
L 532.002214 -192.095585 
L 530.005009 -193.882393 
L 528.019563 -195.6692 
L 526.297853 -197.456008 
L 524.940799 -199.242815 
L 523.883462 -201.029622 
L 523.139322 -202.81643 
L 522.705609 -204.603237 
L 522.479635 -206.390045 
L 522.45 -208.176852 
L 522.624363 -209.963659 
L 522.827193 -211.750467 
L 522.934462 -213.537274 
L 523.14604 -215.324082 
L 523.73488 -217.110889 
L 524.666639 -218.897696 
L 525.65074 -220.684504 
L 526.5354 -222.471311 
L 527.483688 -224.258119 
L 528.71842 -226.044926 
L 530.282076 -227.831733 
L 532.057538 -229.618541 
L 533.891219 -231.405348 
L 535.673672 -233.192156 
L 537.327093 -234.978963 
L 538.829414 -236.76577 
L 540.299956 -238.552578 
L 541.929094 -240.339385 
L 543.816036 -242.126193 
L 545.90698 -243.913 
L 548.045584 -245.699807 
L 550.105572 -247.486615 
L 552.0487 -249.273422 
L 553.844467 -251.06023 
L 555.452572 -252.847037 
L 556.909428 -254.633844 
L 558.336235 -256.420652 
L 559.82334 -258.207459 
L 561.34131 -259.994267 
L 562.831483 -261.781074 
L 564.31889 -263.567881 
L 565.801151 -265.354689 
L 567.166848 -267.141496 
L 568.357703 -268.928303 
L 569.438255 -270.715111 
L 570.460328 -272.501918 
L 571.412822 -274.288726 
L 572.289571 -276.075533 
L 573.094865 -277.86234 
L 573.800174 -279.649148 
L 574.379444 -281.435955 
L 574.879665 -283.222763 
L 575.370005 -285.00957 
L 575.839283 -286.796377 
L 576.239219 -288.583185 
L 576.578967 -290.369992 
L 576.893098 -292.1568 
L 577.178149 -293.943607 
L 577.412768 -295.730414 
L 577.594998 -297.517222 
L 577.738889 -299.304029 
L 577.856058 -301.090837 
L 577.952813 -302.877644 
L 578.036279 -304.664451 
L 578.109278 -306.451259 
L 578.165161 -308.238066 
L 578.198713 -310.024874 
L 578.215701 -311.811681 
L 578.226566 -313.598488 
L 578.236383 -315.385296 
L 578.244067 -317.172103 
L 578.248175 -318.958911 
L 578.251825 -318.958911 
L 578.251825 -318.958911 
L 578.255933 -317.172103 
L 578.263617 -315.385296 
L 578.273434 -313.598488 
L 578.284299 -311.811681 
L 578.301287 -310.024874 
L 578.334839 -308.238066 
L 578.390722 -306.451259 
L 578.463721 -304.664451 
L 578.547187 -302.877644 
L 578.643942 -301.090837 
L 578.761111 -299.304029 
L 578.905002 -297.517222 
L 579.087232 -295.730414 
L 579.321851 -293.943607 
L 579.606902 -292.1568 
L 579.921033 -290.369992 
L 580.260781 -288.583185 
L 580.660717 -286.796377 
L 581.129995 -285.00957 
L 581.620335 -283.222763 
L 582.120556 -281.435955 
L 582.699826 -279.649148 
L 583.405135 -277.86234 
L 584.210429 -276.075533 
L 585.087178 -274.288726 
L 586.039672 -272.501918 
L 587.061745 -270.715111 
L 588.142297 -268.928303 
L 589.333152 -267.141496 
L 590.698849 -265.354689 
L 592.18111 -263.567881 
L 593.668517 -261.781074 
L 595.15869 -259.994267 
L 596.67666 -258.207459 
L 598.163765 -256.420652 
L 599.590572 -254.633844 
L 601.047428 -252.847037 
L 602.655533 -251.06023 
L 604.4513 -249.273422 
L 606.394428 -247.486615 
L 608.454416 -245.699807 
L 610.59302 -243.913 
L 612.683964 -242.126193 
L 614.570906 -240.339385 
L 616.200044 -238.552578 
L 617.670586 -236.76577 
L 619.172907 -234.978963 
L 620.826328 -233.192156 
L 622.608781 -231.405348 
L 624.442462 -229.618541 
L 626.217924 -227.831733 
L 627.78158 -226.044926 
L 629.016312 -224.258119 
L 629.9646 -222.471311 
L 630.84926 -220.684504 
L 631.833361 -218.897696 
L 632.76512 -217.110889 
L 633.35396 -215.324082 
L 633.565538 -213.537274 
L 633.672807 -211.750467 
L 633.875637 -209.963659 
L 634.05 -208.176852 
L 634.020365 -206.390045 
L 633.794391 -204.603237 
L 633.360678 -202.81643 
L 632.616538 -201.029622 
L 631.559201 -199.242815 
L 630.202147 -197.456008 
L 628.480437 -195.6692 
L 626.494991 -193.882393 
L 624.497786 -192.095585 
L 622.549396 -190.308778 
L 620.456035 -188.521971 
L 618.002687 -186.735163 
L 615.160985 -184.948356 
L 612.140978 -183.161548 
L 609.237196 -181.374741 
L 606.57889 -179.587934 
L 604.074456 -177.801126 
L 601.572656 -176.014319 
L 599.01303 -174.227511 
L 596.449626 -172.440704 
L 593.971418 -170.653897 
L 591.646621 -168.867089 
L 589.533579 -167.080282 
L 587.667587 -165.293474 
L 586.053239 -163.506667 
L 584.691798 -161.71986 
L 583.575643 -159.933052 
L 582.662157 -158.146245 
L 581.878588 -156.359438 
L 581.168996 -154.57263 
L 580.531324 -152.785823 
L 579.967899 -150.999015 
L 579.44319 -149.212208 
L 578.956807 -147.425401 
L 578.580779 -145.638593 
L 578.365785 -143.851786 
L 578.279265 -142.064978 
z
" style="stroke: #1f1f1f"/>
    </defs>
    <g clip-path="url(#p08ed511f95)">
     <use xlink:href="#mf4211a9ba3" x="0" y="432" style="fill: #cf6f1e; stroke: #1f1f1f"/>
    </g>
   </g>
   <g id="matplotlib.axis_1">
    <g id="xtick_1">
     <g id="line2d_1">
      <defs>
       <path id="m898486d33c" d="M 0 0 
L 0 3.5 
" style="stroke: #000000; stroke-width: 0.8"/>
      </defs>
      <g>
       <use xlink:href="#m898486d33c" x="159.75" y="384.48" style="stroke: #000000; stroke-width: 0.8"/>
      </g>
     </g>
     <g id="text_1">
      <!-- ONT -->
      <g transform="translate(149.019531 399.078438) scale(0.1 -0.1)">
       <defs>
        <path id="DejaVuSans-4f" d="M 2522 4238 
Q 1834 4238 1429 3725 
Q 1025 3213 1025 2328 
Q 1025 1447 1429 934 
Q 1834 422 2522 422 
Q 3209 422 3611 934 
Q 4013 1447 4013 2328 
Q 4013 3213 3611 3725 
Q 3209 4238 2522 4238 
z
M 2522 4750 
Q 3503 4750 4090 4092 
Q 4678 3434 4678 2328 
Q 4678 1225 4090 567 
Q 3503 -91 2522 -91 
Q 1538 -91 948 565 
Q 359 1222 359 2328 
Q 359 3434 948 4092 
Q 1538 4750 2522 4750 
z
" transform="scale(0.015625)"/>
        <path id="DejaVuSans-4e" d="M 628 4666 
L 1478 4666 
L 3547 763 
L 3547 4666 
L 4159 4666 
L 4159 0 
L 3309 0 
L 1241 3903 
L 1241 0 
L 628 0 
L 628 4666 
z
" transform="scale(0.015625)"/>
        <path id="DejaVuSans-54" d="M -19 4666 
L 3928 4666 
L 3928 4134 
L 2272 4134 
L 2272 0 
L 1638 0 
L 1638 4134 
L -19 4134 
L -19 4666 
z
" transform="scale(0.015625)"/>
       </defs>
       <use xlink:href="#DejaVuSans-4f"/>
       <use xlink:href="#DejaVuSans-4e" x="78.710938"/>
       <use xlink:href="#DejaVuSans-54" x="153.515625"/>
      </g>
     </g>
    </g>
    <g id="xtick_2">
     <g id="line2d_2">
      <g>
       <use xlink:href="#m898486d33c" x="299.25" y="384.48" style="stroke: #000000; stroke-width: 0.8"/>
      </g>
     </g>
     <g id="text_2">
      <!-- Porcupine -->
      <g transform="translate(274.6875 399.078438) scale(0.1 -0.1)">
       <defs>
        <path id="DejaVuSans-50" d="M 1259 4147 
L 1259 2394 
L 2053 2394 
Q 2494 2394 2734 2622 
Q 2975 2850 2975 3272 
Q 2975 3691 2734 3919 
Q 2494 4147 2053 4147 
L 1259 4147 
z
M 628 4666 
L 2053 4666 
Q 2838 4666 3239 4311 
Q 3641 3956 3641 3272 
Q 3641 2581 3239 2228 
Q 2838 1875 2053 1875 
L 1259 1875 
L 1259 0 
L 628 0 
L 628 4666 
z
" transform="scale(0.015625)"/>
        <path id="DejaVuSans-6f" d="M 1959 3097 
Q 1497 3097 1228 2736 
Q 959 2375 959 1747 
Q 959 1119 1226 758 
Q 1494 397 1959 397 
Q 2419 397 2687 759 
Q 2956 1122 2956 1747 
Q 2956 2369 2687 2733 
Q 2419 3097 1959 3097 
z
M 1959 3584 
Q 2709 3584 3137 3096 
Q 3566 2609 3566 1747 
Q 3566 888 3137 398 
Q 2709 -91 1959 -91 
Q 1206 -91 779 398 
Q 353 888 353 1747 
Q 353 2609 779 3096 
Q 1206 3584 1959 3584 
z
" transform="scale(0.015625)"/>
        <path id="DejaVuSans-72" d="M 2631 2963 
Q 2534 3019 2420 3045 
Q 2306 3072 2169 3072 
Q 1681 3072 1420 2755 
Q 1159 2438 1159 1844 
L 1159 0 
L 581 0 
L 581 3500 
L 1159 3500 
L 1159 2956 
Q 1341 3275 1631 3429 
Q 1922 3584 2338 3584 
Q 2397 3584 2469 3576 
Q 2541 3569 2628 3553 
L 2631 2963 
z
" transform="scale(0.015625)"/>
        <path id="DejaVuSans-63" d="M 3122 3366 
L 3122 2828 
Q 2878 2963 2633 3030 
Q 2388 3097 2138 3097 
Q 1578 3097 1268 2742 
Q 959 2388 959 1747 
Q 959 1106 1268 751 
Q 1578 397 2138 397 
Q 2388 397 2633 464 
Q 2878 531 3122 666 
L 3122 134 
Q 2881 22 2623 -34 
Q 2366 -91 2075 -91 
Q 1284 -91 818 406 
Q 353 903 353 1747 
Q 353 2603 823 3093 
Q 1294 3584 2113 3584 
Q 2378 3584 2631 3529 
Q 2884 3475 3122 3366 
z
" transform="scale(0.015625)"/>
        <path id="DejaVuSans-75" d="M 544 1381 
L 544 3500 
L 1119 3500 
L 1119 1403 
Q 1119 906 1312 657 
Q 1506 409 1894 409 
Q 2359 409 2629 706 
Q 2900 1003 2900 1516 
L 2900 3500 
L 3475 3500 
L 3475 0 
L 2900 0 
L 2900 538 
Q 2691 219 2414 64 
Q 2138 -91 1772 -91 
Q 1169 -91 856 284 
Q 544 659 544 1381 
z
M 1991 3584 
L 1991 3584 
z
" transform="scale(0.015625)"/>
        <path id="DejaVuSans-70" d="M 1159 525 
L 1159 -1331 
L 581 -1331 
L 581 3500 
L 1159 3500 
L 1159 2969 
Q 1341 3281 1617 3432 
Q 1894 3584 2278 3584 
Q 2916 3584 3314 3078 
Q 3713 2572 3713 1747 
Q 3713 922 3314 415 
Q 2916 -91 2278 -91 
Q 1894 -91 1617 61 
Q 1341 213 1159 525 
z
M 3116 1747 
Q 3116 2381 2855 2742 
Q 2594 3103 2138 3103 
Q 1681 3103 1420 2742 
Q 1159 2381 1159 1747 
Q 1159 1113 1420 752 
Q 1681 391 2138 391 
Q 2594 391 2855 752 
Q 3116 1113 3116 1747 
z
" transform="scale(0.015625)"/>
        <path id="DejaVuSans-69" d="M 603 3500 
L 1178 3500 
L 1178 0 
L 603 0 
L 603 3500 
z
M 603 4863 
L 1178 4863 
L 1178 4134 
L 603 4134 
L 603 4863 
z
" transform="scale(0.015625)"/>
        <path id="DejaVuSans-6e" d="M 3513 2113 
L 3513 0 
L 2938 0 
L 2938 2094 
Q 2938 2591 2744 2837 
Q 2550 3084 2163 3084 
Q 1697 3084 1428 2787 
Q 1159 2491 1159 1978 
L 1159 0 
L 581 0 
L 581 3500 
L 1159 3500 
L 1159 2956 
Q 1366 3272 1645 3428 
Q 1925 3584 2291 3584 
Q 2894 3584 3203 3211 
Q 3513 2838 3513 2113 
z
" transform="scale(0.015625)"/>
        <path id="DejaVuSans-65" d="M 3597 1894 
L 3597 1613 
L 953 1613 
Q 991 1019 1311 708 
Q 1631 397 2203 397 
Q 2534 397 2845 478 
Q 3156 559 3463 722 
L 3463 178 
Q 3153 47 2828 -22 
Q 2503 -91 2169 -91 
Q 1331 -91 842 396 
Q 353 884 353 1716 
Q 353 2575 817 3079 
Q 1281 3584 2069 3584 
Q 2775 3584 3186 3129 
Q 3597 2675 3597 1894 
z
M 3022 2063 
Q 3016 2534 2758 2815 
Q 2500 3097 2075 3097 
Q 1594 3097 1305 2825 
Q 1016 2553 972 2059 
L 3022 2063 
z
" transform="scale(0.015625)"/>
       </defs>
       <use xlink:href="#DejaVuSans-50"/>
       <use xlink:href="#DejaVuSans-6f" x="56.677734"/>
       <use xlink:href="#DejaVuSans-72" x="117.859375"/>
       <use xlink:href="#DejaVuSans-63" x="156.722656"/>
       <use xlink:href="#DejaVuSans-75" x="211.703125"/>
       <use xlink:href="#DejaVuSans-70" x="275.082031"/>
       <use xlink:href="#DejaVuSans-69" x="338.558594"/>
       <use xlink:href="#DejaVuSans-6e" x="366.341797"/>
       <use xlink:href="#DejaVuSans-65" x="429.720703"/>
      </g>
     </g>
    </g>
    <g id="xtick_3">
     <g id="line2d_3">
      <g>
       <use xlink:href="#m898486d33c" x="438.75" y="384.48" style="stroke: #000000; stroke-width: 0.8"/>
      </g>
     </g>
     <g id="text_3">
      <!-- Seq96 -->
      <g transform="translate(422.9625 399.078438) scale(0.1 -0.1)">
       <defs>
        <path id="DejaVuSans-53" d="M 3425 4513 
L 3425 3897 
Q 3066 4069 2747 4153 
Q 2428 4238 2131 4238 
Q 1616 4238 1336 4038 
Q 1056 3838 1056 3469 
Q 1056 3159 1242 3001 
Q 1428 2844 1947 2747 
L 2328 2669 
Q 3034 2534 3370 2195 
Q 3706 1856 3706 1288 
Q 3706 609 3251 259 
Q 2797 -91 1919 -91 
Q 1588 -91 1214 -16 
Q 841 59 441 206 
L 441 856 
Q 825 641 1194 531 
Q 1563 422 1919 422 
Q 2459 422 2753 634 
Q 3047 847 3047 1241 
Q 3047 1584 2836 1778 
Q 2625 1972 2144 2069 
L 1759 2144 
Q 1053 2284 737 2584 
Q 422 2884 422 3419 
Q 422 4038 858 4394 
Q 1294 4750 2059 4750 
Q 2388 4750 2728 4690 
Q 3069 4631 3425 4513 
z
" transform="scale(0.015625)"/>
        <path id="DejaVuSans-71" d="M 947 1747 
Q 947 1113 1208 752 
Q 1469 391 1925 391 
Q 2381 391 2643 752 
Q 2906 1113 2906 1747 
Q 2906 2381 2643 2742 
Q 2381 3103 1925 3103 
Q 1469 3103 1208 2742 
Q 947 2381 947 1747 
z
M 2906 525 
Q 2725 213 2448 61 
Q 2172 -91 1784 -91 
Q 1150 -91 751 415 
Q 353 922 353 1747 
Q 353 2572 751 3078 
Q 1150 3584 1784 3584 
Q 2172 3584 2448 3432 
Q 2725 3281 2906 2969 
L 2906 3500 
L 3481 3500 
L 3481 -1331 
L 2906 -1331 
L 2906 525 
z
" transform="scale(0.015625)"/>
        <path id="DejaVuSans-39" d="M 703 97 
L 703 672 
Q 941 559 1184 500 
Q 1428 441 1663 441 
Q 2288 441 2617 861 
Q 2947 1281 2994 2138 
Q 2813 1869 2534 1725 
Q 2256 1581 1919 1581 
Q 1219 1581 811 2004 
Q 403 2428 403 3163 
Q 403 3881 828 4315 
Q 1253 4750 1959 4750 
Q 2769 4750 3195 4129 
Q 3622 3509 3622 2328 
Q 3622 1225 3098 567 
Q 2575 -91 1691 -91 
Q 1453 -91 1209 -44 
Q 966 3 703 97 
z
M 1959 2075 
Q 2384 2075 2632 2365 
Q 2881 2656 2881 3163 
Q 2881 3666 2632 3958 
Q 2384 4250 1959 4250 
Q 1534 4250 1286 3958 
Q 1038 3666 1038 3163 
Q 1038 2656 1286 2365 
Q 1534 2075 1959 2075 
z
" transform="scale(0.015625)"/>
        <path id="DejaVuSans-36" d="M 2113 2584 
Q 1688 2584 1439 2293 
Q 1191 2003 1191 1497 
Q 1191 994 1439 701 
Q 1688 409 2113 409 
Q 2538 409 2786 701 
Q 3034 994 3034 1497 
Q 3034 2003 2786 2293 
Q 2538 2584 2113 2584 
z
M 3366 4563 
L 3366 3988 
Q 3128 4100 2886 4159 
Q 2644 4219 2406 4219 
Q 1781 4219 1451 3797 
Q 1122 3375 1075 2522 
Q 1259 2794 1537 2939 
Q 1816 3084 2150 3084 
Q 2853 3084 3261 2657 
Q 3669 2231 3669 1497 
Q 3669 778 3244 343 
Q 2819 -91 2113 -91 
Q 1303 -91 875 529 
Q 447 1150 447 2328 
Q 447 3434 972 4092 
Q 1497 4750 2381 4750 
Q 2619 4750 2861 4703 
Q 3103 4656 3366 4563 
z
" transform="scale(0.015625)"/>
       </defs>
       <use xlink:href="#DejaVuSans-53"/>
       <use xlink:href="#DejaVuSans-65" x="63.476562"/>
       <use xlink:href="#DejaVuSans-71" x="125"/>
       <use xlink:href="#DejaVuSans-39" x="188.476562"/>
       <use xlink:href="#DejaVuSans-36" x="252.099609"/>
      </g>
     </g>
    </g>
    <g id="xtick_4">
     <g id="line2d_4">
      <g>
       <use xlink:href="#m898486d33c" x="578.25" y="384.48" style="stroke: #000000; stroke-width: 0.8"/>
      </g>
     </g>
     <g id="text_4">
      <!-- Seq384 -->
      <g transform="translate(559.28125 399.078438) scale(0.1 -0.1)">
       <defs>
        <path id="DejaVuSans-33" d="M 2597 2516 
Q 3050 2419 3304 2112 
Q 3559 1806 3559 1356 
Q 3559 666 3084 287 
Q 2609 -91 1734 -91 
Q 1441 -91 1130 -33 
Q 819 25 488 141 
L 488 750 
Q 750 597 1062 519 
Q 1375 441 1716 441 
Q 2309 441 2620 675 
Q 2931 909 2931 1356 
Q 2931 1769 2642 2001 
Q 2353 2234 1838 2234 
L 1294 2234 
L 1294 2753 
L 1863 2753 
Q 2328 2753 2575 2939 
Q 2822 3125 2822 3475 
Q 2822 3834 2567 4026 
Q 2313 4219 1838 4219 
Q 1578 4219 1281 4162 
Q 984 4106 628 3988 
L 628 4550 
Q 988 4650 1302 4700 
Q 1616 4750 1894 4750 
Q 2613 4750 3031 4423 
Q 3450 4097 3450 3541 
Q 3450 3153 3228 2886 
Q 3006 2619 2597 2516 
z
" transform="scale(0.015625)"/>
        <path id="DejaVuSans-38" d="M 2034 2216 
Q 1584 2216 1326 1975 
Q 1069 1734 1069 1313 
Q 1069 891 1326 650 
Q 1584 409 2034 409 
Q 2484 409 2743 651 
Q 3003 894 3003 1313 
Q 3003 1734 2745 1975 
Q 2488 2216 2034 2216 
z
M 1403 2484 
Q 997 2584 770 2862 
Q 544 3141 544 3541 
Q 544 4100 942 4425 
Q 1341 4750 2034 4750 
Q 2731 4750 3128 4425 
Q 3525 4100 3525 3541 
Q 3525 3141 3298 2862 
Q 3072 2584 2669 2484 
Q 3125 2378 3379 2068 
Q 3634 1759 3634 1313 
Q 3634 634 3220 271 
Q 2806 -91 2034 -91 
Q 1263 -91 848 271 
Q 434 634 434 1313 
Q 434 1759 690 2068 
Q 947 2378 1403 2484 
z
M 1172 3481 
Q 1172 3119 1398 2916 
Q 1625 2713 2034 2713 
Q 2441 2713 2670 2916 
Q 2900 3119 2900 3481 
Q 2900 3844 2670 4047 
Q 2441 4250 2034 4250 
Q 1625 4250 1398 4047 
Q 1172 3844 1172 3481 
z
" transform="scale(0.015625)"/>
        <path id="DejaVuSans-34" d="M 2419 4116 
L 825 1625 
L 2419 1625 
L 2419 4116 
z
M 2253 4666 
L 3047 4666 
L 3047 1625 
L 3713 1625 
L 3713 1100 
L 3047 1100 
L 3047 0 
L 2419 0 
L 2419 1100 
L 313 1100 
L 313 1709 
L 2253 4666 
z
" transform="scale(0.015625)"/>
       </defs>
       <use xlink:href="#DejaVuSans-53"/>
       <use xlink:href="#DejaVuSans-65" x="63.476562"/>
       <use xlink:href="#DejaVuSans-71" x="125"/>
       <use xlink:href="#DejaVuSans-33" x="188.476562"/>
       <use xlink:href="#DejaVuSans-38" x="252.099609"/>
       <use xlink:href="#DejaVuSans-34" x="315.722656"/>
      </g>
     </g>
    </g>
    <g id="text_5">
     <!-- Categories -->
     <g transform="translate(342.048437 412.756563) scale(0.1 -0.1)">
      <defs>
       <path id="DejaVuSans-43" d="M 4122 4306 
L 4122 3641 
Q 3803 3938 3442 4084 
Q 3081 4231 2675 4231 
Q 1875 4231 1450 3742 
Q 1025 3253 1025 2328 
Q 1025 1406 1450 917 
Q 1875 428 2675 428 
Q 3081 428 3442 575 
Q 3803 722 4122 1019 
L 4122 359 
Q 3791 134 3420 21 
Q 3050 -91 2638 -91 
Q 1578 -91 968 557 
Q 359 1206 359 2328 
Q 359 3453 968 4101 
Q 1578 4750 2638 4750 
Q 3056 4750 3426 4639 
Q 3797 4528 4122 4306 
z
" transform="scale(0.015625)"/>
       <path id="DejaVuSans-61" d="M 2194 1759 
Q 1497 1759 1228 1600 
Q 959 1441 959 1056 
Q 959 750 1161 570 
Q 1363 391 1709 391 
Q 2188 391 2477 730 
Q 2766 1069 2766 1631 
L 2766 1759 
L 2194 1759 
z
M 3341 1997 
L 3341 0 
L 2766 0 
L 2766 531 
Q 2569 213 2275 61 
Q 1981 -91 1556 -91 
Q 1019 -91 701 211 
Q 384 513 384 1019 
Q 384 1609 779 1909 
Q 1175 2209 1959 2209 
L 2766 2209 
L 2766 2266 
Q 2766 2663 2505 2880 
Q 2244 3097 1772 3097 
Q 1472 3097 1187 3025 
Q 903 2953 641 2809 
L 641 3341 
Q 956 3463 1253 3523 
Q 1550 3584 1831 3584 
Q 2591 3584 2966 3190 
Q 3341 2797 3341 1997 
z
" transform="scale(0.015625)"/>
       <path id="DejaVuSans-74" d="M 1172 4494 
L 1172 3500 
L 2356 3500 
L 2356 3053 
L 1172 3053 
L 1172 1153 
Q 1172 725 1289 603 
Q 1406 481 1766 481 
L 2356 481 
L 2356 0 
L 1766 0 
Q 1100 0 847 248 
Q 594 497 594 1153 
L 594 3053 
L 172 3053 
L 172 3500 
L 594 3500 
L 594 4494 
L 1172 4494 
z
" transform="scale(0.015625)"/>
       <path id="DejaVuSans-67" d="M 2906 1791 
Q 2906 2416 2648 2759 
Q 2391 3103 1925 3103 
Q 1463 3103 1205 2759 
Q 947 2416 947 1791 
Q 947 1169 1205 825 
Q 1463 481 1925 481 
Q 2391 481 2648 825 
Q 2906 1169 2906 1791 
z
M 3481 434 
Q 3481 -459 3084 -895 
Q 2688 -1331 1869 -1331 
Q 1566 -1331 1297 -1286 
Q 1028 -1241 775 -1147 
L 775 -588 
Q 1028 -725 1275 -790 
Q 1522 -856 1778 -856 
Q 2344 -856 2625 -561 
Q 2906 -266 2906 331 
L 2906 616 
Q 2728 306 2450 153 
Q 2172 0 1784 0 
Q 1141 0 747 490 
Q 353 981 353 1791 
Q 353 2603 747 3093 
Q 1141 3584 1784 3584 
Q 2172 3584 2450 3431 
Q 2728 3278 2906 2969 
L 2906 3500 
L 3481 3500 
L 3481 434 
z
" transform="scale(0.015625)"/>
       <path id="DejaVuSans-73" d="M 2834 3397 
L 2834 2853 
Q 2591 2978 2328 3040 
Q 2066 3103 1784 3103 
Q 1356 3103 1142 2972 
Q 928 2841 928 2578 
Q 928 2378 1081 2264 
Q 1234 2150 1697 2047 
L 1894 2003 
Q 2506 1872 2764 1633 
Q 3022 1394 3022 966 
Q 3022 478 2636 193 
Q 2250 -91 1575 -91 
Q 1294 -91 989 -36 
Q 684 19 347 128 
L 347 722 
Q 666 556 975 473 
Q 1284 391 1588 391 
Q 1994 391 2212 530 
Q 2431 669 2431 922 
Q 2431 1156 2273 1281 
Q 2116 1406 1581 1522 
L 1381 1569 
Q 847 1681 609 1914 
Q 372 2147 372 2553 
Q 372 3047 722 3315 
Q 1072 3584 1716 3584 
Q 2034 3584 2315 3537 
Q 2597 3491 2834 3397 
z
" transform="scale(0.015625)"/>
      </defs>
      <use xlink:href="#DejaVuSans-43"/>
      <use xlink:href="#DejaVuSans-61" x="69.824219"/>
      <use xlink:href="#DejaVuSans-74" x="131.103516"/>
      <use xlink:href="#DejaVuSans-65" x="170.3125"/>
      <use xlink:href="#DejaVuSans-67" x="231.835938"/>
      <use xlink:href="#DejaVuSans-6f" x="295.3125"/>
      <use xlink:href="#DejaVuSans-72" x="356.494141"/>
      <use xlink:href="#DejaVuSans-69" x="397.607422"/>
      <use xlink:href="#DejaVuSans-65" x="425.390625"/>
      <use xlink:href="#DejaVuSans-73" x="486.914062"/>
     </g>
    </g>
   </g>
   <g id="matplotlib.axis_2">
    <g id="ytick_1">
     <g id="line2d_5">
      <defs>
       <path id="m72e4c9f0f5" d="M 0 0 
L -3.5 0 
" style="stroke: #000000; stroke-width: 0.8"/>
      </defs>
      <g>
       <use xlink:href="#m72e4c9f0f5" x="90" y="384.48" style="stroke: #000000; stroke-width: 0.8"/>
      </g>
     </g>
     <g id="text_6">
      <!-- 10 -->
      <g transform="translate(70.275 388.279219) scale(0.1 -0.1)">
       <defs>
        <path id="DejaVuSans-31" d="M 794 531 
L 1825 531 
L 1825 4091 
L 703 3866 
L 703 4441 
L 1819 4666 
L 2450 4666 
L 2450 531 
L 3481 531 
L 3481 0 
L 794 0 
L 794 531 
z
" transform="scale(0.015625)"/>
        <path id="DejaVuSans-30" d="M 2034 4250 
Q 1547 4250 1301 3770 
Q 1056 3291 1056 2328 
Q 1056 1369 1301 889 
Q 1547 409 2034 409 
Q 2525 409 2770 889 
Q 3016 1369 3016 2328 
Q 3016 3291 2770 3770 
Q 2525 4250 2034 4250 
z
M 2034 4750 
Q 2819 4750 3233 4129 
Q 3647 3509 3647 2328 
Q 3647 1150 3233 529 
Q 2819 -91 2034 -91 
Q 1250 -91 836 529 
Q 422 1150 422 2328 
Q 422 3509 836 4129 
Q 1250 4750 2034 4750 
z
" transform="scale(0.015625)"/>
       </defs>
       <use xlink:href="#DejaVuSans-31"/>
       <use xlink:href="#DejaVuSans-30" x="63.623047"/>
      </g>
     </g>
    </g>
    <g id="ytick_2">
     <g id="line2d_6">
      <g>
       <use xlink:href="#m72e4c9f0f5" x="90" y="218.16" style="stroke: #000000; stroke-width: 0.8"/>
      </g>
     </g>
     <g id="text_7">
      <!-- 100 -->
      <g transform="translate(63.9125 221.959219) scale(0.1 -0.1)">
       <use xlink:href="#DejaVuSans-31"/>
       <use xlink:href="#DejaVuSans-30" x="63.623047"/>
       <use xlink:href="#DejaVuSans-30" x="127.246094"/>
      </g>
     </g>
    </g>
    <g id="ytick_3">
     <g id="line2d_7">
      <g>
       <use xlink:href="#m72e4c9f0f5" x="90" y="51.84" style="stroke: #000000; stroke-width: 0.8"/>
      </g>
     </g>
     <g id="text_8">
      <!-- 1000 -->
      <g transform="translate(57.55 55.639219) scale(0.1 -0.1)">
       <use xlink:href="#DejaVuSans-31"/>
       <use xlink:href="#DejaVuSans-30" x="63.623047"/>
       <use xlink:href="#DejaVuSans-30" x="127.246094"/>
       <use xlink:href="#DejaVuSans-30" x="190.869141"/>
      </g>
     </g>
    </g>
    <g id="text_9">
     <!-- Distances (Log10) -->
     <g transform="translate(51.470312 263.412344) rotate(-90) scale(0.1 -0.1)">
      <defs>
       <path id="DejaVuSans-44" d="M 1259 4147 
L 1259 519 
L 2022 519 
Q 2988 519 3436 956 
Q 3884 1394 3884 2338 
Q 3884 3275 3436 3711 
Q 2988 4147 2022 4147 
L 1259 4147 
z
M 628 4666 
L 1925 4666 
Q 3281 4666 3915 4102 
Q 4550 3538 4550 2338 
Q 4550 1131 3912 565 
Q 3275 0 1925 0 
L 628 0 
L 628 4666 
z
" transform="scale(0.015625)"/>
       <path id="DejaVuSans-20" transform="scale(0.015625)"/>
       <path id="DejaVuSans-28" d="M 1984 4856 
Q 1566 4138 1362 3434 
Q 1159 2731 1159 2009 
Q 1159 1288 1364 580 
Q 1569 -128 1984 -844 
L 1484 -844 
Q 1016 -109 783 600 
Q 550 1309 550 2009 
Q 550 2706 781 3412 
Q 1013 4119 1484 4856 
L 1984 4856 
z
" transform="scale(0.015625)"/>
       <path id="DejaVuSans-4c" d="M 628 4666 
L 1259 4666 
L 1259 531 
L 3531 531 
L 3531 0 
L 628 0 
L 628 4666 
z
" transform="scale(0.015625)"/>
       <path id="DejaVuSans-29" d="M 513 4856 
L 1013 4856 
Q 1481 4119 1714 3412 
Q 1947 2706 1947 2009 
Q 1947 1309 1714 600 
Q 1481 -109 1013 -844 
L 513 -844 
Q 928 -128 1133 580 
Q 1338 1288 1338 2009 
Q 1338 2731 1133 3434 
Q 928 4138 513 4856 
z
" transform="scale(0.015625)"/>
      </defs>
      <use xlink:href="#DejaVuSans-44"/>
      <use xlink:href="#DejaVuSans-69" x="77.001953"/>
      <use xlink:href="#DejaVuSans-73" x="104.785156"/>
      <use xlink:href="#DejaVuSans-74" x="156.884766"/>
      <use xlink:href="#DejaVuSans-61" x="196.09375"/>
      <use xlink:href="#DejaVuSans-6e" x="257.373047"/>
      <use xlink:href="#DejaVuSans-63" x="320.751953"/>
      <use xlink:href="#DejaVuSans-65" x="375.732422"/>
      <use xlink:href="#DejaVuSans-73" x="437.255859"/>
      <use xlink:href="#DejaVuSans-20" x="489.355469"/>
      <use xlink:href="#DejaVuSans-28" x="521.142578"/>
      <use xlink:href="#DejaVuSans-4c" x="560.15625"/>
      <use xlink:href="#DejaVuSans-6f" x="614.119141"/>
      <use xlink:href="#DejaVuSans-67" x="675.300781"/>
      <use xlink:href="#DejaVuSans-31" x="738.777344"/>
      <use xlink:href="#DejaVuSans-30" x="802.400391"/>
      <use xlink:href="#DejaVuSans-29" x="866.023438"/>
     </g>
    </g>
   </g>
   <g id="line2d_8">
    <path d="M 159.75 331.489766 
L 159.75 173.195763 
" clip-path="url(#p08ed511f95)" style="fill: none; stroke: #1f1f1f; stroke-width: 1.5; stroke-linecap: square"/>
   </g>
   <g id="line2d_9">
    <path d="M 159.75 271.720396 
L 159.75 231.69228 
" clip-path="url(#p08ed511f95)" style="fill: none; stroke: #1f1f1f; stroke-width: 4.5; stroke-linecap: square"/>
   </g>
   <g id="line2d_10">
    <path d="M 159.75 252.181927 
" clip-path="url(#p08ed511f95)" style="fill: none; stroke: #1f1f1f; stroke-width: 1.5; stroke-linecap: square"/>
    <defs>
     <path id="mb76fc08756" d="M 1.875 0 
L -1.875 -0 
" style="stroke: #ffffff; stroke-width: 0.9"/>
    </defs>
    <g clip-path="url(#p08ed511f95)">
     <use xlink:href="#mb76fc08756" x="159.75" y="252.181927" style="fill: #ffffff; stroke: #ffffff; stroke-width: 0.9"/>
    </g>
   </g>
   <g id="line2d_11">
    <path d="M 299.25 300.928974 
L 299.25 103.862543 
" clip-path="url(#p08ed511f95)" style="fill: none; stroke: #1f1f1f; stroke-width: 1.5; stroke-linecap: square"/>
   </g>
   <g id="line2d_12">
    <path d="M 299.25 233.455989 
L 299.25 180.678602 
" clip-path="url(#p08ed511f95)" style="fill: none; stroke: #1f1f1f; stroke-width: 4.5; stroke-linecap: square"/>
   </g>
   <g id="line2d_13">
    <path d="M 299.25 208.764883 
" clip-path="url(#p08ed511f95)" style="fill: none; stroke: #1f1f1f; stroke-width: 1.5; stroke-linecap: square"/>
    <g clip-path="url(#p08ed511f95)">
     <use xlink:href="#mb76fc08756" x="299.25" y="208.764883" style="fill: #ffffff; stroke: #ffffff; stroke-width: 0.9"/>
    </g>
   </g>
   <g id="line2d_14">
    <path d="M 438.75 293.544501 
L 438.75 127.076257 
" clip-path="url(#p08ed511f95)" style="fill: none; stroke: #1f1f1f; stroke-width: 1.5; stroke-linecap: square"/>
   </g>
   <g id="line2d_15">
    <path d="M 438.75 231.485023 
L 438.75 188.918538 
" clip-path="url(#p08ed511f95)" style="fill: none; stroke: #1f1f1f; stroke-width: 4.5; stroke-linecap: square"/>
   </g>
   <g id="line2d_16">
    <path d="M 438.75 210.215997 
" clip-path="url(#p08ed511f95)" style="fill: none; stroke: #1f1f1f; stroke-width: 1.5; stroke-linecap: square"/>
    <g clip-path="url(#p08ed511f95)">
     <use xlink:href="#mb76fc08756" x="438.75" y="210.215997" style="fill: #ffffff; stroke: #ffffff; stroke-width: 0.9"/>
    </g>
   </g>
   <g id="line2d_17">
    <path d="M 578.25 284.331348 
L 578.25 141.354377 
" clip-path="url(#p08ed511f95)" style="fill: none; stroke: #1f1f1f; stroke-width: 1.5; stroke-linecap: square"/>
   </g>
   <g id="line2d_18">
    <path d="M 578.25 236.000653 
L 578.25 198.14117 
" clip-path="url(#p08ed511f95)" style="fill: none; stroke: #1f1f1f; stroke-width: 4.5; stroke-linecap: square"/>
   </g>
   <g id="line2d_19">
    <path d="M 578.25 217.895341 
" clip-path="url(#p08ed511f95)" style="fill: none; stroke: #1f1f1f; stroke-width: 1.5; stroke-linecap: square"/>
    <g clip-path="url(#p08ed511f95)">
     <use xlink:href="#mb76fc08756" x="578.25" y="217.895341" style="fill: #ffffff; stroke: #ffffff; stroke-width: 0.9"/>
    </g>
   </g>
   <g id="line2d_20">
    <path d="M 90 301.028901 
L 648 301.028901 
" clip-path="url(#p08ed511f95)" style="fill: none; stroke-dasharray: 5.55,2.4; stroke-dashoffset: 0; stroke: #6f6f6f; stroke-width: 1.5"/>
   </g>
   <g id="patch_3">
    <path d="M 90 384.48 
L 90 51.84 
" style="fill: none; stroke: #000000; stroke-width: 0.8; stroke-linejoin: miter; stroke-linecap: square"/>
   </g>
   <g id="patch_4">
    <path d="M 648 384.48 
L 648 51.84 
" style="fill: none; stroke: #000000; stroke-width: 0.8; stroke-linejoin: miter; stroke-linecap: square"/>
   </g>
   <g id="patch_5">
    <path d="M 90 384.48 
L 648 384.48 
" style="fill: none; stroke: #000000; stroke-width: 0.8; stroke-linejoin: miter; stroke-linecap: square"/>
   </g>
   <g id="patch_6">
    <path d="M 90 51.84 
L 648 51.84 
" style="fill: none; stroke: #000000; stroke-width: 0.8; stroke-linejoin: miter; stroke-linecap: square"/>
   </g>
   <g id="text_10">
    <!-- Bhattacharyya Distances for Different Barcodes -->
    <g transform="translate(225.657187 45.84) scale(0.12 -0.12)">
     <defs>
      <path id="DejaVuSans-42" d="M 1259 2228 
L 1259 519 
L 2272 519 
Q 2781 519 3026 730 
Q 3272 941 3272 1375 
Q 3272 1813 3026 2020 
Q 2781 2228 2272 2228 
L 1259 2228 
z
M 1259 4147 
L 1259 2741 
L 2194 2741 
Q 2656 2741 2882 2914 
Q 3109 3088 3109 3444 
Q 3109 3797 2882 3972 
Q 2656 4147 2194 4147 
L 1259 4147 
z
M 628 4666 
L 2241 4666 
Q 2963 4666 3353 4366 
Q 3744 4066 3744 3513 
Q 3744 3084 3544 2831 
Q 3344 2578 2956 2516 
Q 3422 2416 3680 2098 
Q 3938 1781 3938 1306 
Q 3938 681 3513 340 
Q 3088 0 2303 0 
L 628 0 
L 628 4666 
z
" transform="scale(0.015625)"/>
      <path id="DejaVuSans-68" d="M 3513 2113 
L 3513 0 
L 2938 0 
L 2938 2094 
Q 2938 2591 2744 2837 
Q 2550 3084 2163 3084 
Q 1697 3084 1428 2787 
Q 1159 2491 1159 1978 
L 1159 0 
L 581 0 
L 581 4863 
L 1159 4863 
L 1159 2956 
Q 1366 3272 1645 3428 
Q 1925 3584 2291 3584 
Q 2894 3584 3203 3211 
Q 3513 2838 3513 2113 
z
" transform="scale(0.015625)"/>
      <path id="DejaVuSans-79" d="M 2059 -325 
Q 1816 -950 1584 -1140 
Q 1353 -1331 966 -1331 
L 506 -1331 
L 506 -850 
L 844 -850 
Q 1081 -850 1212 -737 
Q 1344 -625 1503 -206 
L 1606 56 
L 191 3500 
L 800 3500 
L 1894 763 
L 2988 3500 
L 3597 3500 
L 2059 -325 
z
" transform="scale(0.015625)"/>
      <path id="DejaVuSans-66" d="M 2375 4863 
L 2375 4384 
L 1825 4384 
Q 1516 4384 1395 4259 
Q 1275 4134 1275 3809 
L 1275 3500 
L 2222 3500 
L 2222 3053 
L 1275 3053 
L 1275 0 
L 697 0 
L 697 3053 
L 147 3053 
L 147 3500 
L 697 3500 
L 697 3744 
Q 697 4328 969 4595 
Q 1241 4863 1831 4863 
L 2375 4863 
z
" transform="scale(0.015625)"/>
      <path id="DejaVuSans-64" d="M 2906 2969 
L 2906 4863 
L 3481 4863 
L 3481 0 
L 2906 0 
L 2906 525 
Q 2725 213 2448 61 
Q 2172 -91 1784 -91 
Q 1150 -91 751 415 
Q 353 922 353 1747 
Q 353 2572 751 3078 
Q 1150 3584 1784 3584 
Q 2172 3584 2448 3432 
Q 2725 3281 2906 2969 
z
M 947 1747 
Q 947 1113 1208 752 
Q 1469 391 1925 391 
Q 2381 391 2643 752 
Q 2906 1113 2906 1747 
Q 2906 2381 2643 2742 
Q 2381 3103 1925 3103 
Q 1469 3103 1208 2742 
Q 947 2381 947 1747 
z
" transform="scale(0.015625)"/>
     </defs>
     <use xlink:href="#DejaVuSans-42"/>
     <use xlink:href="#DejaVuSans-68" x="68.603516"/>
     <use xlink:href="#DejaVuSans-61" x="131.982422"/>
     <use xlink:href="#DejaVuSans-74" x="193.261719"/>
     <use xlink:href="#DejaVuSans-74" x="232.470703"/>
     <use xlink:href="#DejaVuSans-61" x="271.679688"/>
     <use xlink:href="#DejaVuSans-63" x="332.958984"/>
     <use xlink:href="#DejaVuSans-68" x="387.939453"/>
     <use xlink:href="#DejaVuSans-61" x="451.318359"/>
     <use xlink:href="#DejaVuSans-72" x="512.597656"/>
     <use xlink:href="#DejaVuSans-79" x="553.710938"/>
     <use xlink:href="#DejaVuSans-79" x="612.890625"/>
     <use xlink:href="#DejaVuSans-61" x="672.070312"/>
     <use xlink:href="#DejaVuSans-20" x="733.349609"/>
     <use xlink:href="#DejaVuSans-44" x="765.136719"/>
     <use xlink:href="#DejaVuSans-69" x="842.138672"/>
     <use xlink:href="#DejaVuSans-73" x="869.921875"/>
     <use xlink:href="#DejaVuSans-74" x="922.021484"/>
     <use xlink:href="#DejaVuSans-61" x="961.230469"/>
     <use xlink:href="#DejaVuSans-6e" x="1022.509766"/>
     <use xlink:href="#DejaVuSans-63" x="1085.888672"/>
     <use xlink:href="#DejaVuSans-65" x="1140.869141"/>
     <use xlink:href="#DejaVuSans-73" x="1202.392578"/>
     <use xlink:href="#DejaVuSans-20" x="1254.492188"/>
     <use xlink:href="#DejaVuSans-66" x="1286.279297"/>
     <use xlink:href="#DejaVuSans-6f" x="1321.484375"/>
     <use xlink:href="#DejaVuSans-72" x="1382.666016"/>
     <use xlink:href="#DejaVuSans-20" x="1423.779297"/>
     <use xlink:href="#DejaVuSans-44" x="1455.566406"/>
     <use xlink:href="#DejaVuSans-69" x="1532.568359"/>
     <use xlink:href="#DejaVuSans-66" x="1560.351562"/>
     <use xlink:href="#DejaVuSans-66" x="1595.556641"/>
     <use xlink:href="#DejaVuSans-65" x="1630.761719"/>
     <use xlink:href="#DejaVuSans-72" x="1692.285156"/>
     <use xlink:href="#DejaVuSans-65" x="1731.148438"/>
     <use xlink:href="#DejaVuSans-6e" x="1792.671875"/>
     <use xlink:href="#DejaVuSans-74" x="1856.050781"/>
     <use xlink:href="#DejaVuSans-20" x="1895.259766"/>
     <use xlink:href="#DejaVuSans-42" x="1927.046875"/>
     <use xlink:href="#DejaVuSans-61" x="1995.650391"/>
     <use xlink:href="#DejaVuSans-72" x="2056.929688"/>
     <use xlink:href="#DejaVuSans-63" x="2095.792969"/>
     <use xlink:href="#DejaVuSans-6f" x="2150.773438"/>
     <use xlink:href="#DejaVuSans-64" x="2211.955078"/>
     <use xlink:href="#DejaVuSans-65" x="2275.431641"/>
     <use xlink:href="#DejaVuSans-73" x="2336.955078"/>
    </g>
   </g>
  </g>
 </g>
 <defs>
  <clipPath id="p08ed511f95">
   <rect x="90" y="51.84" width="558" height="332.64"/>
  </clipPath>
 </defs>
</svg>
